<svg xmlns="http://www.w3.org/2000/svg" width="22" height="22" viewBox="0 0 22 22">
    <defs>
        <style>
            .cls-1,.cls-4{fill:#fff}.cls-1{stroke:#707070}.cls-2{clip-path:url(#clip-path)}.cls-3{fill:none}.cls-3,.cls-4{fill-rule:evenodd}
        </style>
        <clipPath id="clip-path">
            <path id="Rectangle_43" d="M0 0h22v22H0z" class="cls-1" data-name="Rectangle 43"/>
        </clipPath>
    </defs>
    <g id="Mask_Group_15" class="cls-2" data-name="Mask Group 15">
        <g id="Icons" transform="translate(-.006)">
            <g id="Outlined">
                <g id="Action">
                    <g id="Outlined-_-Action-_-euro_symbol" data-name="Outlined-/-Action-/-euro_symbol">
                        <g id="Group_842" data-name="Group 842">
                            <path id="Path" d="M0 0h22.037v22.037H0z" class="cls-3"/>
                            <path id="_-Icon-Color" d="M14.769 17.982a5.95 5.95 0 0 1-5.289-3.213h5.289v-1.837H8.874a5.776 5.776 0 0 1 0-1.836h5.895V9.259H9.48a5.957 5.957 0 0 1 9.173-1.772l1.625-1.625a8.252 8.252 0 0 0-13.3 3.4H3.75V11.1h2.81a7.679 7.679 0 0 0 0 1.836H3.75v1.836h3.232a8.252 8.252 0 0 0 13.3 3.4l-1.634-1.625a5.882 5.882 0 0 1-3.879 1.435z" class="cls-4" data-name="🔹-Icon-Color" transform="translate(-.995 -.995)"/>
                        </g>
                    </g>
                </g>
            </g>
        </g>
    </g>
</svg>
