<svg xmlns="http://www.w3.org/2000/svg" id="Group_767" width="48" height="48" data-name="Group 767" viewBox="0 0 48 48">
    <defs>
        <style>
            .cls-1{fill:#3e5c9a}.cls-2{fill:#fff}
        </style>
    </defs>
    <path id="Path_2870" d="M-167.7 282.729a24 24 0 0 1-24-24 24 24 0 0 1 24-24 24 24 0 0 1 24 24 24 24 0 0 1-24 24z" class="cls-1" data-name="Path 2870" transform="translate(191.705 -234.729)"/>
    <path id="Path_2871" d="M-162.808 277.928h5.842V263.3h4.076l.434-4.9h-4.51v-2.79c0-1.154.232-1.611 1.348-1.611h3.162v-5.084h-4.044c-4.347 0-6.307 1.915-6.307 5.579v3.906h-3.039v4.96h3.039z" class="cls-2" data-name="Path 2871" transform="translate(183.151 -239.422)"/>
</svg>
