<svg xmlns="http://www.w3.org/2000/svg" width="13.351" height="13.351" viewBox="0 0 13.351 13.351">
    <defs>
        <style>
            .cls-1{opacity:.5}
        </style>
    </defs>
    <g id="full-size" class="cls-1">
        <path id="Path_2879" d="M4.253 4.037a.465.465 0 0 1-.465-.465V1.59L.794 4.584a.465.465 0 1 1-.658-.658L3.131.932H1.148a.465.465 0 1 1 0-.93h3.105a.465.465 0 0 1 .465.465v3.105a.465.465 0 0 1-.465.465z" data-name="Path 2879" transform="translate(8.633 -.002)"/>
        <path id="Path_2880" d="M138.219 138.528a.465.465 0 0 1 .465.465v1.983l3.087-3.087a.465.465 0 0 1 .658.658l-3.087 3.087h1.982a.465.465 0 1 1 0 .93h-3.105a.465.465 0 0 1-.465-.465v-3.105a.465.465 0 0 1 .465-.466z" data-name="Path 2880" transform="translate(-137.754 -129.212)"/>
        <path id="Path_2881" d="M.8 137.888l3.087 3.087v-1.983a.465.465 0 1 1 .93 0v3.108a.465.465 0 0 1-.465.465H1.245a.465.465 0 1 1 0-.93h1.983l-3.087-3.089a.465.465 0 0 1 .658-.658z" data-name="Path 2881" transform="translate(8.535 -129.212)"/>
        <path id="Path_2882" d="M139.713 0h3.105a.465.465 0 1 1 0 .93h-1.983l2.994 2.994a.465.465 0 0 1-.658.658l-2.994-2.994v1.984a.465.465 0 1 1-.93 0V.467a.465.465 0 0 1 .466-.467z" data-name="Path 2882" transform="translate(-139.248 -.002)"/>
    </g>
</svg>
