<svg xmlns="http://www.w3.org/2000/svg" id="Group_1031" width="585" height="408.188" data-name="Group 1031" viewBox="0 0 585 408.188">
    <defs>
        <style>
            .cls-1,.cls-5{fill:#459316}.cls-1,.cls-3,.cls-4{opacity:.1}.cls-2{fill:#3f3d56}.cls-6{fill:#f2f2f2}.cls-7{fill:#fbbebe}.cls-8{fill:#ff6f61}.cls-9{fill:#3a3768}.cls-10{fill:#e6e8ec}
        </style>
    </defs>
    <path id="Path_3016" d="M197.81 148.355a137.928 137.928 0 0 1 165.735-18.663c-53.12 19.016-111.732 19.715-165.735 18.663z" class="cls-1" data-name="Path 3016" transform="translate(153.889 -96.175)"/>
    <path id="Path_3017" d="M831.245 650.641l58.008-100.474a1.846 1.846 0 0 1 3.2 0l58.008 100.474a1.846 1.846 0 0 1-1.6 2.8h-17.3a1.857 1.857 0 0 0-1.851 1.851v21.443a1.851 1.851 0 0 1-1.846 1.851h-22.577a1.851 1.851 0 0 1-1.851-1.851v-10.367a1.846 1.846 0 0 0-1.846-1.846h-21.465a1.851 1.851 0 0 0-1.851 1.846v10.363a1.851 1.851 0 0 1-1.851 1.851h-22.572a1.851 1.851 0 0 1-1.851-1.851v-21.465a1.851 1.851 0 0 0-1.851-1.851h-17.3a1.851 1.851 0 0 1-1.6-2.774zm80.893 11.118a1.846 1.846 0 0 0 1.309.559h8.126a1.851 1.851 0 0 0 0-3.7h-8.143a1.851 1.851 0 0 0-1.309 3.16zm-53.287 0a1.845 1.845 0 0 0 1.309.559h8.121a1.851 1.851 0 0 0 0-3.7h-8.154a1.851 1.851 0 0 0-1.309 3.16z" class="cls-1" data-name="Path 3017" transform="translate(-787.42 -289.641)"/>
    <path id="Path_3018" d="M204.76 652.225l58.008-100.474a1.851 1.851 0 0 1 3.2 0l50.105 86.783a153.058 153.058 0 0 1-20.967 21.649h-8.165a1.851 1.851 0 1 0 0 3.7h3.445a89.635 89.635 0 0 1-13.423 8.35v-4.278a1.851 1.851 0 0 0-1.851-1.851h-21.461a1.851 1.851 0 0 0-1.846 1.851v10.358a1.8 1.8 0 0 1-.173.777 1.851 1.851 0 0 1-1.678 1.074h-22.577a1.812 1.812 0 0 1-1.471-.744 1.779 1.779 0 0 1-.375-1.119v-21.445A1.851 1.851 0 0 0 223.68 655h-17.3a1.851 1.851 0 0 1-1.616-2.78zm38.338 8.5a1.846 1.846 0 0 0-1.309-.559h-8.143a1.851 1.851 0 1 0 0 3.7h8.149a1.851 1.851 0 0 0 1.309-3.16zm36.437-37.181a1.851 1.851 0 0 0 1.851-1.851v-14.06a1.851 1.851 0 0 0-1.851-1.851h-30.341a1.851 1.851 0 0 0-1.846 1.851v14.06a1.851 1.851 0 0 0 1.846 1.851z" class="cls-1" data-name="Path 3018" transform="translate(197.61 -290.342)"/>
    <path id="Path_3019" d="M410.015 379.374H481.8v-15.525a3.714 3.714 0 0 1 3.714-3.714h21.076V343.6a2.338 2.338 0 0 1 2.338-2.338h27.153a2.338 2.338 0 0 1 2.338 2.338v16.53H563.2a3.714 3.714 0 0 1 3.714 3.714v15.525h68.449a.755.755 0 0 1 .749.755v206.109a.755.755 0 0 1-.749.755h-45.491a.755.755 0 0 1-.755-.755V558.5a.76.76 0 0 0-.755-.755h-19.217a.761.761 0 0 0-.755.755v27.729a.755.755 0 0 1-.749.755h-89.9a.761.761 0 0 1-.755-.755V558.5a.755.755 0 0 0-.749-.755h-19.221a.755.755 0 0 0-.755.755v27.729a.761.761 0 0 1-.755.755h-45.491a.761.761 0 0 1-.755-.755v-206.1a.761.761 0 0 1 .755-.755zM597.26 548.119a.749.749 0 0 0 .749.749h28.1a.749.749 0 0 0 .755-.749v-9.58a.755.755 0 0 0-.755-.755h-28.1a.755.755 0 0 0-.749.755zm0-24.8a.75.75 0 0 0 .749.755h28.1a.75.75 0 0 0 .755-.755v-9.592a.749.749 0 0 0-.755-.755h-28.1a.749.749 0 0 0-.749.755zm0-24.793a.755.755 0 0 0 .749.755h28.1a.755.755 0 0 0 .755-.755v-9.6a.755.755 0 0 0-.755-.755h-28.1a.755.755 0 0 0-.749.755zm0-24.8a.75.75 0 0 0 .749.755h28.1a.749.749 0 0 0 .755-.755v-9.575a.749.749 0 0 0-.755-.755h-28.1a.75.75 0 0 0-.749.755zm0-24.793a.755.755 0 0 0 .749.755h28.1a.755.755 0 0 0 .755-.755v-9.6a.749.749 0 0 0-.755-.749h-28.1a.749.749 0 0 0-.749.749zm0-24.793a.749.749 0 0 0 .749.749h28.1a.749.749 0 0 0 .755-.749v-9.6a.755.755 0 0 0-.755-.755h-28.1a.755.755 0 0 0-.749.755zm0-24.8a.75.75 0 0 0 .749.755h28.1a.749.749 0 0 0 .755-.755v-9.575a.749.749 0 0 0-.755-.755h-28.1a.749.749 0 0 0-.749.755zm-66.615 148.773a.749.749 0 0 0 .755.749h28.1a.755.755 0 0 0 .755-.749v-9.575a.761.761 0 0 0-.755-.755h-28.1a.755.755 0 0 0-.755.755zm0-24.8a.749.749 0 0 0 .755.755h28.1a.755.755 0 0 0 .755-.755v-9.586a.755.755 0 0 0-.755-.755h-28.1a.749.749 0 0 0-.755.755zm0-24.793a.755.755 0 0 0 .755.755h28.1a.761.761 0 0 0 .755-.755v-9.591a.761.761 0 0 0-.755-.755h-28.1a.755.755 0 0 0-.755.755zm0-24.8a.749.749 0 0 0 .755.755h28.1a.755.755 0 0 0 .755-.755v-9.569a.755.755 0 0 0-.755-.755h-28.1a.749.749 0 0 0-.755.755zm0-24.793a.755.755 0 0 0 .755.755h28.1a.761.761 0 0 0 .755-.755v-9.587a.755.755 0 0 0-.755-.749h-28.1a.749.749 0 0 0-.755.749zm0-24.793a.749.749 0 0 0 .755.749h28.1a.755.755 0 0 0 .755-.749v-9.591a.761.761 0 0 0-.755-.755h-28.1a.755.755 0 0 0-.755.755zm0-24.8a.749.749 0 0 0 .755.755h28.1a.755.755 0 0 0 .755-.755v-9.569a.755.755 0 0 0-.755-.755h-28.1a.749.749 0 0 0-.755.755zm-45.52 148.773a.749.749 0 0 0 .755.749h28.1a.755.755 0 0 0 .755-.749v-9.569a.761.761 0 0 0-.755-.755h-28.1a.755.755 0 0 0-.755.755zm0-24.8a.75.75 0 0 0 .755.755h28.1a.755.755 0 0 0 .755-.755v-9.58a.755.755 0 0 0-.755-.755h-28.1a.749.749 0 0 0-.755.755zm0-24.793a.755.755 0 0 0 .755.755h28.1a.761.761 0 0 0 .755-.755v-9.586a.761.761 0 0 0-.755-.755h-28.1a.755.755 0 0 0-.755.755zm0-24.8a.75.75 0 0 0 .755.755h28.1a.755.755 0 0 0 .755-.755v-9.563a.755.755 0 0 0-.755-.755h-28.1a.749.749 0 0 0-.755.755zm0-24.793a.755.755 0 0 0 .755.755h28.1a.761.761 0 0 0 .755-.755v-9.581a.755.755 0 0 0-.755-.749h-28.1a.749.749 0 0 0-.755.749zm0-24.793a.749.749 0 0 0 .755.749h28.1a.755.755 0 0 0 .755-.749v-9.586a.761.761 0 0 0-.755-.755h-28.1a.755.755 0 0 0-.755.755zm0-24.8a.749.749 0 0 0 .755.755h28.1a.755.755 0 0 0 .755-.755v-9.563a.755.755 0 0 0-.755-.755h-28.1a.749.749 0 0 0-.755.755zM418.51 548.1a.755.755 0 0 0 .755.749h28.1a.75.75 0 0 0 .755-.749v-9.563a.755.755 0 0 0-.755-.755h-28.1a.761.761 0 0 0-.755.755zm0-24.8a.755.755 0 0 0 .755.755h28.1a.75.75 0 0 0 .755-.755v-9.575a.75.75 0 0 0-.755-.755h-28.1a.755.755 0 0 0-.755.755zm0-24.793a.761.761 0 0 0 .755.755h28.1a.755.755 0 0 0 .755-.755v-9.58a.755.755 0 0 0-.755-.755h-28.1a.761.761 0 0 0-.755.755zm0-24.8a.755.755 0 0 0 .755.755h28.1a.75.75 0 0 0 .755-.755v-9.558a.75.75 0 0 0-.755-.755h-28.1a.755.755 0 0 0-.755.755zm0-24.793a.761.761 0 0 0 .755.755h28.1a.755.755 0 0 0 .755-.755v-9.58a.75.75 0 0 0-.755-.749h-28.1a.755.755 0 0 0-.755.749zm0-24.793a.755.755 0 0 0 .749.766h28.1a.749.749 0 0 0 .755-.749v-9.6a.755.755 0 0 0-.755-.755h-28.1a.761.761 0 0 0-.755.755zm0-24.8a.755.755 0 0 0 .755.755h28.1a.749.749 0 0 0 .755-.755v-9.558a.749.749 0 0 0-.755-.755h-28.1a.755.755 0 0 0-.755.755z" class="cls-1" data-name="Path 3019" transform="translate(-236.936 -197.98)"/>
    <path id="Path_3020" d="M361.25 292.536a16.157 16.157 0 0 1 9.379 1.018 13.82 13.82 0 0 0 11.314-.028 15.783 15.783 0 0 1 13.244.263 8.249 8.249 0 0 0 3.814.951c5.369 0 9.838-5.408 10.766-12.544a10.3 10.3 0 0 1-2.685-2.891c-3.149-5.073-8.026-8.333-13.5-8.333s-10.291 3.221-13.423 8.238a10.352 10.352 0 0 1-8.92 4.9h-.14c-4.318-.003-8.02 3.426-9.849 8.426z" class="cls-1" data-name="Path 3020" transform="translate(16.26 -167.001)"/>
    <path id="Path_3021" d="M363.5 254.434l8.68 5.5-5.268-9.58a8.579 8.579 0 0 1 5.252-1.874h.14a10.156 10.156 0 0 0 1.8-.134l2.931 1.868-1.264-2.293a10.458 10.458 0 0 0 5.145-3.915l5.268 3.356-3.316-6.063a15.412 15.412 0 0 1 11.8-5.962c5.475 0 10.352 3.255 13.5 8.328a10.1 10.1 0 0 0 8.948 4.815h.3c6.046 0 10.945 6.851 10.945 15.307s-4.9 15.307-10.945 15.307a8.171 8.171 0 0 1-3.814-.956 15.783 15.783 0 0 0-13.244-.257 13.82 13.82 0 0 1-11.264 0 15.777 15.777 0 0 0-13.132.252 8.194 8.194 0 0 1-3.769.934c-6.046 0-10.945-6.857-10.945-15.307a19.441 19.441 0 0 1 2.252-9.326z" class="cls-1" data-name="Path 3021" transform="translate(-2.322 -151.298)"/>
    <path id="Path_3022" d="M848.34 480.118a11.359 11.359 0 0 1 6.566.71 9.659 9.659 0 0 0 7.886 0 11.051 11.051 0 0 1 9.273.185 5.749 5.749 0 0 0 2.668.666c3.758 0 6.885-3.786 7.533-8.781a7.309 7.309 0 0 1-1.879-2.025c-2.2-3.551-5.593-5.833-9.446-5.833s-7.209 2.237-9.413 5.766a7.237 7.237 0 0 1-6.242 3.428h-.1c-2.965-.011-5.554 2.389-6.846 5.884z" class="cls-1" data-name="Path 3022" transform="translate(-728.656 -252.533)"/>
    <path id="Path_3023" d="M849.911 453.458l6.074 3.853-3.685-6.711a6.007 6.007 0 0 1 3.674-1.309h.095a7.206 7.206 0 0 0 1.258-.1l2.064 1.3-.884-1.6a7.377 7.377 0 0 0 3.6-2.735l3.7 2.327-2.327-4.234a10.737 10.737 0 0 1 8.255-4.178c3.831 0 7.271 2.282 9.452 5.833a7.058 7.058 0 0 0 6.247 3.356h.184c4.228 0 7.662 4.793 7.662 10.71s-3.434 10.716-7.662 10.716a5.75 5.75 0 0 1-2.668-.666 11.029 11.029 0 0 0-9.273-.179 9.715 9.715 0 0 1-7.886 0 11.046 11.046 0 0 0-9.189.179 5.789 5.789 0 0 1-2.64.649c-4.234 0-7.662-4.793-7.662-10.716a13.619 13.619 0 0 1 1.611-6.5z" class="cls-1" data-name="Path 3023" transform="translate(-741.647 -241.532)"/>
    <path id="Path_3024" d="M349.546 416.1a11.364 11.364 0 0 0-6.566.71 9.642 9.642 0 0 1-7.88 0 11.051 11.051 0 0 0-9.273.185 5.766 5.766 0 0 1-2.668.666c-3.758 0-6.89-3.786-7.539-8.781a7.233 7.233 0 0 0 1.879-2.025c2.192-3.563 5.621-5.856 9.463-5.856s7.2 2.237 9.407 5.766a7.27 7.27 0 0 0 6.253 3.44h.1c2.97.001 5.565 2.395 6.824 5.895z" class="cls-1" data-name="Path 3024" transform="translate(102.001 -224.309)"/>
    <path id="Path_3025" d="M337.643 389.453l-6.074 3.837 3.691-6.711a6.018 6.018 0 0 0-3.674-1.309h-.1a7.271 7.271 0 0 1-1.258-.1l-2.058 1.3.884-1.6a7.388 7.388 0 0 1-3.607-2.735l-3.686 2.338 2.332-4.234a10.791 10.791 0 0 0-8.26-4.178c-3.831 0-7.271 2.282-9.452 5.833a7.052 7.052 0 0 1-6.247 3.356h-.2c-4.234 0-7.662 4.793-7.662 10.71s3.428 10.716 7.662 10.716a5.782 5.782 0 0 0 2.668-.666 11.029 11.029 0 0 1 9.273-.179 9.7 9.7 0 0 0 7.88 0 11.057 11.057 0 0 1 9.194.179 5.771 5.771 0 0 0 2.64.649c4.228 0 7.662-4.793 7.662-10.716a13.618 13.618 0 0 0-1.608-6.49z" class="cls-1" data-name="Path 3025" transform="translate(125.357 -213.321)"/>
    <path id="Path_3026" d="M697.4 784.87c-7.573 4.81-18.484-.056-26.107 4.681-1.969 1.219-3.557 3.014-5.593 4.122-2.444 1.337-5.319 1.577-8.1 1.678-23.277.9-46.945-5.593-69.641-.347-6.348 1.465-12.556 3.848-19.06 4.195-11.236.61-22-4.871-33.249-5.173-17.058-.459-33.819 10.956-50.279 6.454-5.414-1.482-10.38-4.642-15.967-5.173-6.225-.559-12.209 2.153-18.26 3.736-21.459 5.593-43.808-3.468-65.994-4.144-14.468-.442-28.8 2.712-43.254 3.44-10.279.515-20.581-.207-30.849-.923-3.915-.274-8.014-.61-11.292-2.757s-5.291-6.762-3.266-10.117z" class="cls-2" data-name="Path 3026" transform="translate(-234.703 -393.345)"/>
    <path id="Path_3027" d="M697.4 784.87c-7.573 4.81-18.484-.056-26.107 4.681-1.969 1.219-3.557 3.014-5.593 4.122-2.444 1.337-5.319 1.577-8.1 1.678-23.277.9-46.945-5.593-69.641-.347-6.348 1.465-12.556 3.848-19.06 4.195-11.236.61-22-4.871-33.249-5.173-17.058-.459-33.819 10.956-50.279 6.454-5.414-1.482-10.38-4.642-15.967-5.173-6.225-.559-12.209 2.153-18.26 3.736-21.459 5.593-43.808-3.468-65.994-4.144-14.468-.442-28.8 2.712-43.254 3.44-10.279.515-20.581-.207-30.849-.923-3.915-.274-8.014-.61-11.292-2.757s-5.291-6.762-3.266-10.117z" class="cls-3" data-name="Path 3027" transform="translate(-234.703 -393.345)"/>
    <path id="Path_3028" d="M697.4 779.87c-7.573 4.81-18.484-.056-26.107 4.681-1.969 1.219-3.557 3.015-5.593 4.122-2.444 1.337-5.319 1.577-8.1 1.678-23.277.9-46.945-5.593-69.641-.347-6.348 1.465-12.556 3.848-19.06 4.195-11.236.61-22-4.871-33.249-5.173-17.058-.459-33.819 10.956-50.279 6.454-5.414-1.482-10.38-4.642-15.967-5.173-6.225-.559-12.209 2.153-18.26 3.736-21.459 5.593-43.808-3.467-65.994-4.144-14.468-.442-28.8 2.712-43.254 3.44-10.279.515-20.581-.207-30.849-.923-3.915-.274-8.014-.61-11.292-2.757s-5.291-6.762-3.266-10.117z" class="cls-2" data-name="Path 3028" transform="translate(-234.703 -391.141)"/>
    <g id="Group_1029" class="cls-4" data-name="Group 1029" transform="translate(483.956 116.424)">
        <path id="Path_3029" d="M168.4 637.071a13.675 13.675 0 0 0 1.806 6.924 14.172 14.172 0 0 0 0 13.848 12.723 12.723 0 0 0-1.365 3.356 253.97 253.97 0 0 0 16.829-25.167 13.423 13.423 0 0 0-1.767-5.906 13.674 13.674 0 0 0 1.806-6.924 14.24 14.24 0 0 0-.817-4.815 11.964 11.964 0 0 0-.99-2.108c-1.577-2.679-4.06-4.407-6.846-4.407s-5.274 1.728-6.851 4.407a12.459 12.459 0 0 0-.968 2.041 14.334 14.334 0 0 0-.839 4.882 13.674 13.674 0 0 0 1.806 6.924 13.674 13.674 0 0 0-1.804 6.945z" class="cls-2" data-name="Path 3029" transform="translate(-135.783 -433.668)"/>
        <ellipse id="Ellipse_59" cx="8.652" cy="11.331" class="cls-2" data-name="Ellipse 59" rx="8.652" ry="11.331" transform="translate(32.623 164.382)"/>
        <ellipse id="Ellipse_60" cx="8.652" cy="11.331" class="cls-2" data-name="Ellipse 60" rx="8.652" ry="11.331" transform="translate(32.623 150.535)"/>
        <path id="Path_3030" d="M109.367 385.945a41.263 41.263 0 0 0 8.876 25.631 41.459 41.459 0 0 0 24.608 66.313c1 .2 2.008.358 3.031.481a41.881 41.881 0 0 0 9.508.05q1.577-.168 3.115-.464a40.994 40.994 0 0 0 12.863-4.7 413.041 413.041 0 0 0 19.468-46.862A41.268 41.268 0 0 0 183.4 411.6a41.493 41.493 0 0 0 6.711-38.931l-31.476 10.565 29.522-15.334a41.628 41.628 0 0 0-4.726-7.561 41.459 41.459 0 1 0-68.472-46.392l30.43 22.371-33-17.114a41.509 41.509 0 0 0 .794 32.846l24.608-.185-22.74 3.736a41.625 41.625 0 0 0 3.227 4.743 41.275 41.275 0 0 0-8.915 25.6z" class="cls-5" data-name="Path 3030" transform="translate(-109.367 -293.239)"/>
        <path id="Path_3031" d="M109.42 509.8a41.468 41.468 0 0 0 33.449 40.68c1 .2 2.014.359 3.038.482a41.888 41.888 0 0 0 9.508.05q1.577-.168 3.115-.464a40.994 40.994 0 0 0 12.863-4.7 413.035 413.035 0 0 0 19.5-46.884 41.269 41.269 0 0 0-7.433-14.793 41.291 41.291 0 0 0 8.876-25.654c0-4.653-79.6 18.579-74.037 25.632a41.264 41.264 0 0 0-8.879 25.651z" class="cls-3" data-name="Path 3031" transform="translate(-109.42 -365.813)"/>
    </g>
    <g id="Group_1030" class="cls-4" data-name="Group 1030" transform="translate(0 160.925)">
        <path id="Path_3032" d="M1081.4 637.65a441.14 441.14 0 0 0 5.134 15.341 14.334 14.334 0 0 0 .738-4.592c0-4.999-2.461-9.233-5.872-10.749z" class="cls-2" data-name="Path 3032" transform="translate(-1064.006 -489.532)"/>
        <path id="Path_3033" d="M1022.321 431.69c0 9.815 1.98 25.324 5.593 43.064a472.994 472.994 0 0 0 11.829 46.174 441.14 441.14 0 0 0 5.134 15.341 309.501 309.501 0 0 0 6.448 16.56 41.615 41.615 0 0 0 18.406-64.747 41.655 41.655 0 0 0 6.711-39.015l-31.476 10.587 29.519-15.369a41.763 41.763 0 0 0-4.726-7.578 41.61 41.61 0 0 0-16.286-63.9 71.334 71.334 0 0 0-27.265 35.754l5.453 4.06-5.85-3.037a70.987 70.987 0 0 0-3.406 18.629h1.644l-1.678.274c-.05 1.061-.05 2.124-.05 3.203z" class="cls-5" data-name="Path 3033" transform="translate(-1022.321 -372.81)"/>
        <path id="Path_3034" d="M1022.42 544.876a472.985 472.985 0 0 0 11.829 46.174 441.14 441.14 0 0 0 5.134 15.341 309.5 309.5 0 0 0 6.449 16.56 41.616 41.616 0 0 0 18.406-64.747 41.441 41.441 0 0 0 8.87-25.682c-.001-2.797-28.927 4.529-50.688 12.354z" class="cls-3" data-name="Path 3034" transform="translate(-1016.855 -442.931)"/>
    </g>
    <path id="Path_3035" d="M77.065 328.938v-.263a70.984 70.984 0 0 1 3.406-18.629c.112-.341.224-.688.341-1.023a71 71 0 0 1 120.194-24.267 100.339 100.339 0 0 1 5.654-19.837 318.568 318.568 0 0 0 56.28 2.1 227.077 227.077 0 0 1-35.682 12.958l.436 1.622a229.146 229.146 0 0 0 39.887-14.933l3.865-1.874-4.284.28a318.671 318.671 0 0 1-59.842-1.717 100.905 100.905 0 0 1 17.628-28.008c32.192-3.244 64.132-10 93.958-23.394l-.688-1.527c-29.032 13.048-60.144 19.754-91.553 23.053a100.535 100.535 0 0 1 159.8 16.985 138.079 138.079 0 0 1 34.25-77.683 322.486 322.486 0 0 0 53 16.057 320.546 320.546 0 0 0 82.851 6.594 227.061 227.061 0 0 1-35.682 12.958l.436 1.622a229.14 229.14 0 0 0 39.88-14.937l3.865-1.874-4.284.28a318.345 318.345 0 0 1-138.9-22.007q2.489-2.724 5.123-5.324c55.044 1.119 114.992.559 169.264-19.2a138.437 138.437 0 0 1 65.726 117.934c0 25.984-7.142 61.716-19.575 97.565a414.574 414.574 0 0 1-19.524 46.979c-3.8 7.718-7.83 15.218-12.064 22.4A254.221 254.221 0 0 1 594 456.994q-1.644 2.164-3.328 4.251a153.524 153.524 0 0 1-20.962 21.739q-2.332 1.946-4.692 3.708a89.376 89.376 0 0 1-13.423 8.389 61.892 61.892 0 0 1-25.335 6.868c-.694.028-1.393.045-2.086.045v.285h-375.83v-.285h-.28a19.015 19.015 0 0 1-6.353-1.119c-13.288-4.715-25.525-23.646-35.7-47.572a322.243 322.243 0 0 1-6.448-16.56 405.527 405.527 0 0 1-5.134-15.341A472.986 472.986 0 0 1 82.6 375.229c-3.585-17.74-5.593-33.249-5.593-43.064-.015-1.097-.015-2.159.058-3.227z" class="cls-1" data-name="Path 3035" transform="translate(-76.992 -112.342)"/>
    <path id="Path_3036" d="M358.728 737.864l-10.7-6.3a25.8 25.8 0 0 1 5.475-6.549l20.2 6.281L357.867 722a25.727 25.727 0 0 1 38.086 22.567c0 14.206-11.515 14.7-25.727 14.7s-25.727-.492-25.727-14.7a25.609 25.609 0 0 1 2.209-10.442z" class="cls-5" data-name="Path 3036" transform="translate(39.441 -364.386)"/>
    <path id="Path_3037" d="M348 764.664a20 20 0 0 1 3.792-2.975 17.656 17.656 0 0 1 6.247-3.048c2.013-.386 4.088-.062 6.152-.179a14.351 14.351 0 0 0 9.4-4.306c1.46-1.51 2.612-3.356 4.368-4.525a9.607 9.607 0 0 1 6.549-1.2 16.251 16.251 0 0 1 1.935.4 25.645 25.645 0 0 1 1.521 8.73c0 14.206-11.515 14.7-25.727 14.7-6.9 0-13.154-.117-17.774-1.857l.772-1.443a20.356 20.356 0 0 1 2.765-4.297z" class="cls-3" data-name="Path 3037" transform="translate(47.441 -377.378)"/>
    <ellipse id="Ellipse_61" cx="19.994" cy="19.994" class="cls-2" data-name="Ellipse 61" rx="19.994" ry="19.994" transform="translate(258.893 83.902)"/>
    <path id="Path_3038" d="M572.271 538.824c-2.064 14.48.453 29.244 4.374 43.333a32.179 32.179 0 0 0 2.891 7.623 81.307 81.307 0 0 0 4.888 6.594c3.356 4.62 5.324 10.067 7.164 15.458a436.036 436.036 0 0 1 12.763 45.48 3.117 3.117 0 0 1 0 1.941c-.487 1.119-1.963 1.264-3.177 1.258l-15.693-.084c-.559-1.074.475-2.237 1.119-3.266 2.237-3.479.089-8-1.885-11.638a125.127 125.127 0 0 1-11.062-27.964c-1.074-4.1-1.946-8.288-3.691-12.153-2.108-4.687-5.414-8.719-8.1-13.1a109.76 109.76 0 0 1-7.656-16.18c-3.154-7.707-6.337-15.509-7.578-23.741-1.169-7.729-.593-15.6.168-23.383a1.477 1.477 0 0 1 1.711-1.678l21.057-1.085c4.34-.224 5.369-1.174 4.709 3.087-.459 3.174-1.544 6.274-2.002 9.498z" class="cls-2" data-name="Path 3038" transform="translate(-281.784 -279.394)"/>
    <path id="Path_3039" d="M572.271 538.824c-2.064 14.48.453 29.244 4.374 43.333a32.179 32.179 0 0 0 2.891 7.623 81.307 81.307 0 0 0 4.888 6.594c3.356 4.62 5.324 10.067 7.164 15.458a436.036 436.036 0 0 1 12.763 45.48 3.117 3.117 0 0 1 0 1.941c-.487 1.119-1.963 1.264-3.177 1.258l-15.693-.084c-.559-1.074.475-2.237 1.119-3.266 2.237-3.479.089-8-1.885-11.638a125.127 125.127 0 0 1-11.062-27.964c-1.074-4.1-1.946-8.288-3.691-12.153-2.108-4.687-5.414-8.719-8.1-13.1a109.76 109.76 0 0 1-7.656-16.18c-3.154-7.707-6.337-15.509-7.578-23.741-1.169-7.729-.593-15.6.168-23.383a1.477 1.477 0 0 1 1.711-1.678l21.057-1.085c4.34-.224 5.369-1.174 4.709 3.087-.459 3.174-1.544 6.274-2.002 9.498z" class="cls-3" data-name="Path 3039" transform="translate(-281.784 -279.394)"/>
    <path id="Path_3040" d="M675.779 484.763c4.278 6.152 8.764 13.232 7.343 20.6-1.079 5.593-5.341 9.927-9.362 13.982-16.073 16.141-31.879 34.071-37.348 56.19-1.409 5.716-2.092 11.583-3.305 17.337-2.2 10.458-6.152 20.458-10.067 30.4l-10.492 26.482a15.861 15.861 0 0 1-15.156-10.067 6.638 6.638 0 0 0 3.976-2.556c4.474-6.191 5.391-14.155 6.538-21.705 1.27-8.344 2.964-16.622 4.664-24.893l7.517-36.6c.867-4.223 1.734-8.451 2.864-12.612 4.373-16.118 12.662-31.319 13.943-47.986.19-2.45.308-5.14 1.969-6.957 1.745-1.918 4.608-2.237 7.2-2.388 10.471-.675 19.509-1.699 29.716.773z" class="cls-2" data-name="Path 3040" transform="translate(-389.43 -260.534)"/>
    <path id="Path_3041" d="M572.118 757.821a16.7 16.7 0 0 1 3.479-.447 7.226 7.226 0 0 1 5.682 3.1 14.123 14.123 0 0 1 1.527 3.356l1.516 4.351c.447 1.275.884 2.746.218 3.915a4.149 4.149 0 0 1-2.036 1.572c-3.669 1.633-7.83 1.723-11.8 2.114-3.881.38-7.729 1.063-11.56 1.779-1.32.252-2.634.5-3.971.638a47.313 47.313 0 0 1-8.982-.268l-3.082-.3a11.094 11.094 0 0 1-3.031-.559 3.82 3.82 0 0 1-2.237-2.008c-.761-1.885.872-4.116 2.869-4.508.811-.157 1.678-.084 2.472-.19a11.675 11.675 0 0 0 2.707-.811c3.915-1.549 7.925-3.115 11.392-5.554.962-.677 1.969-1.622 1.862-2.8a5.7 5.7 0 0 0-.5-1.448 5.291 5.291 0 0 1-.045-3.742c.19-.514.559-1.057 1.079-1.118 1.477-.179 1.3 1.974 1.516 2.8.3 1.119.833 1.219 1.885 1.119 3.022-.269 6.042-.42 9.04-.991z" class="cls-6" data-name="Path 3041" transform="translate(-257.51 -380.278)"/>
    <path id="Path_3042" d="M763.331 771.294a9.872 9.872 0 0 1-2.136 6.012 4.676 4.676 0 0 1-1.521 1.225 6.107 6.107 0 0 1-2.8.442 22.4 22.4 0 0 1-7.768-1.572 22.208 22.208 0 0 0-2.685-1.012 30.123 30.123 0 0 0-3.49-.5c-4.625-.666-8.686-3.395-13.154-4.776a27.661 27.661 0 0 1-3.915-1.286 17.943 17.943 0 0 1-4.6-3.6 8.259 8.259 0 0 1-3.02-7.617 1.449 1.449 0 0 1 .134-.789 1.174 1.174 0 0 1 .5-.4c1.359-.671 2.97-.336 4.474-.073 5.436.968 11 .789 16.521.61a2.4 2.4 0 0 0 2.539-1.449l2.1-3.356c.6-.962 1.549-2.064 2.634-1.734a2.147 2.147 0 0 1 1.186 2.237 11.949 11.949 0 0 0-.14 2.707 3.7 3.7 0 0 0 1.79 2.327 11.428 11.428 0 0 0 2.8 1.074c3.087.872 6.678 1.862 9.066 4.133 1.754 1.614 1.591 5.221 1.485 7.397z" class="cls-6" data-name="Path 3042" transform="translate(-537.016 -378.723)"/>
    <path id="Path_3043" d="M696.186 371.1a12.957 12.957 0 0 1-3.054-3.322 13.539 13.539 0 0 1-1.3-4.592l-.878-5.548c-.487-3.059-1.057-6.3-3.1-8.63s-6.107-3.165-8.182-.861a7.177 7.177 0 0 0-1.488 3.714 27.035 27.035 0 0 0 6.611 22.371c2.511 2.752 5.593 4.938 8.249 7.539 2.315 2.237 4.323 4.8 6.46 7.237a89.162 89.162 0 0 0 17.6 15.38c-.078-4.161-.61-8.624 0-12.757.453-2.987 1.678-4.6-1.214-6.549-6.713-4.567-13.49-8.694-19.704-13.982z" class="cls-7" data-name="Path 3043" transform="translate(-468.785 -200.412)"/>
    <path id="Path_3044" d="M627.989 310.188a10.231 10.231 0 0 0 3.915 7.735q-10.453 3.658-20.62 8.065a7.145 7.145 0 0 0 1.767-5 25.239 25.239 0 0 0-3.859-13.479 3.272 3.272 0 0 1-.632-1.778c.078-1.32 1.644-1.93 2.931-2.237a72.069 72.069 0 0 1 13.378-1.941c1.93-.062 4.217-.671 3.781 1.784a27 27 0 0 0-.661 6.851z" class="cls-7" data-name="Path 3044" transform="translate(-344.192 -180.43)"/>
    <ellipse id="Ellipse_62" cx="16.348" cy="16.348" class="cls-7" data-name="Ellipse 62" rx="16.348" ry="16.348" transform="translate(253.972 98.656)"/>
    <path id="Path_3045" d="M608.7 349.137a19.774 19.774 0 0 1 2.075-3.479 72.363 72.363 0 0 1 9.81-12.03 61.069 61.069 0 0 1 9.312-6.84 21.136 21.136 0 0 1 5.828-2.8 22.8 22.8 0 0 1 3.742-.509l4.245-.347a3.473 3.473 0 0 1 1.119.034 2.411 2.411 0 0 1 1.432 2.88 7.088 7.088 0 0 1-1.89 2.975c-.19 8.663 3.663 17.209 4.183 25.861.912 15.128-8.322 29.2-9.06 44.339a4.78 4.78 0 0 0 .213 2.03c.123.313.308.6.447.906a8.851 8.851 0 0 1 .5 3.076 15.626 15.626 0 0 0 4.6 9.854 6.84 6.84 0 0 1-2.6 1.98c-1.784.777-3.915.845-5.811 1.387-4.944 1.443-10.011 2.9-15.151 2.589a13.368 13.368 0 0 1-1.169-4.4c-.727-.453-1.566.515-1.678 1.365s.05 1.84-.559 2.455a2.3 2.3 0 0 1-2.125.425 93.962 93.962 0 0 1-9.228-2.164c-3.076-.71-6.365-1.051-9.357-.034a2.5 2.5 0 0 1 .145-2.74 12.242 12.242 0 0 0 1.471-2.511 5.637 5.637 0 0 0 .179-1.65c0-4.782-.984-9.614-.05-14.306.274-1.376.71-2.718.99-4.1a35.358 35.358 0 0 0 .4-8.177c-.073-2.735.257-5.693.313-8.467a27.01 27.01 0 0 1 .224-3.428c.19-1.191.559-2.355.66-3.557.3-3.054-.928-6.085-.744-9.15.311-4.65 5.719-7.177 7.534-11.467z" class="cls-8" data-name="Path 3045" transform="translate(-354.563 -189.979)"/>
    <path id="Path_3046" d="M584.311 365.618c3.96 10.5 5.895 21.644 7.83 32.706l4.474 25.984c1.27 7.343 2.545 14.731 2.494 22.181a23.744 23.744 0 0 0 .414 6.242c.716 2.651 2.494 4.86 3.842 7.271a23.926 23.926 0 0 1 2.573 16.18c-.459 2.321-1.711 4.955-4.066 5.224-1.935.213-3.607-1.325-4.737-2.914-2.6-3.641-3.881-8.037-5.034-12.365a279.7 279.7 0 0 1-7.757-43.114 41.984 41.984 0 0 0-.777-5.481 38.908 38.908 0 0 0-1.89-5.458q-2.567-6.365-5.14-12.729c-3.954-9.8-7.93-19.653-13.361-28.724 5.369-1.544 10.956-3.356 16.325-4.882a14.744 14.744 0 0 1 4.81-.121z" class="cls-7" data-name="Path 3046" transform="translate(-293.282 -208.652)"/>
    <path id="Path_3047" d="M611.3 370.216c3.758-.811 7.645-.559 11.482-.654a2.477 2.477 0 0 0 1.544-.4c.777-.666.447-1.913.056-2.858l-1.857-4.474a6.509 6.509 0 0 0-1.488-2.472 6.309 6.309 0 0 0-3.529-1.2 31.973 31.973 0 0 0-12.226.475c-3.954 1.1-7.673 3.607-9.441 7.315-.738 1.544-1.079 3.49-.1 4.894 1.454 2.086 4.715 4.418 7.147 3.277 2.912-1.381 5.145-3.21 8.412-3.903z" class="cls-8" data-name="Path 3047" transform="translate(-329.576 -205.269)"/>
    <path id="Path_3048" d="M577.344 236.29a16.509 16.509 0 0 1 9.116 2.629 19.994 19.994 0 0 1 19.631-4.6 11.426 11.426 0 1 1 13.2 13.221 19.994 19.994 0 1 1-38.377 11.236 17.9 17.9 0 0 1-3.585.364c-7.886 0-14.284-5.117-14.284-11.426s6.424-11.424 14.299-11.424z" class="cls-2" data-name="Path 3048" transform="translate(-315.604 -146.678)"/>
    <path id="Path_3049" d="M660.353 272.405a17.39 17.39 0 0 0 3.585-.364 19.9 19.9 0 0 0 2.617 5.755 17.956 17.956 0 0 1-3.356.324c-7.371 0-13.422-4.474-14.2-10.2a15.756 15.756 0 0 0 11.354 4.485z" class="cls-3" data-name="Path 3049" transform="translate(-401.46 -165.657)"/>
    <path id="Path_3050" d="M579.277 270.6a20.022 20.022 0 0 0 19.116-25.883 11.426 11.426 0 0 0 9.446-11.253 11.236 11.236 0 0 0-.185-2.047 11.426 11.426 0 0 1-6.409 19.015 19.994 19.994 0 1 1-38.193 11.845 19.955 19.955 0 0 0 16.225 8.323z" class="cls-3" data-name="Path 3050" transform="translate(-297.532 -149.57)"/>
    <rect id="Rectangle_142" width=".375" height="3.098" class="cls-9" data-name="Rectangle 142" rx=".187" transform="rotate(144.49 80.274 112.2)"/>
    <rect id="Rectangle_143" width=".213" height="1.018" class="cls-9" data-name="Rectangle 143" rx=".106" transform="rotate(144.49 85.797 107.947)"/>
    <rect id="Rectangle_144" width=".235" height="1.773" class="cls-9" data-name="Rectangle 144" rx=".117" transform="rotate(144.49 86.224 109.26)"/>
    <rect id="Rectangle_145" width=".224" height="1.79" class="cls-9" data-name="Rectangle 145" rx=".112" transform="rotate(144.49 86.604 110.467)"/>
    <rect id="Rectangle_146" width="12.572" height="25.553" class="cls-9" data-name="Rectangle 146" rx="2.52" transform="rotate(144.49 88.698 118.988)"/>
    <rect id="Rectangle_147" width="12.572" height="25.553" class="cls-3" data-name="Rectangle 147" rx="2.52" transform="rotate(144.49 88.698 118.988)"/>
    <rect id="Rectangle_148" width="12.572" height="25.553" class="cls-9" data-name="Rectangle 148" rx="2.52" transform="rotate(144.49 89.124 118.55)"/>
    <path id="Path_3051" d="M713.7 347.722l1.169-.839.1.14a.817.817 0 0 0 1.119.2l3.736-2.668a.822.822 0 0 0 .19-1.147l-.1-.14 1.119-.783a1 1 0 0 1 1.393.229l12.903 18.086a1 1 0 0 1-.229 1.393l-7.349 5.24a1 1 0 0 1-1.393-.235l-12.908-18.083a1 1 0 0 1 .246-1.393z" class="cls-5" data-name="Path 3051" transform="translate(-506.362 -198.435)"/>
    <rect id="Rectangle_149" width="1.756" height=".358" class="cls-10" data-name="Rectangle 149" rx=".179" transform="rotate(144.49 82.678 107.149)"/>
    <ellipse id="Ellipse_63" cx=".201" cy=".201" class="cls-10" data-name="Ellipse 63" rx=".201" ry=".201" transform="translate(210.141 147.29)"/>
    <path id="Path_3052" d="M717.471 99a37.471 37.471 0 0 1 37.471 37.471c0 20.693-39.261 89.227-39.261 89.227S680 157.192 680 136.471A37.471 37.471 0 0 1 717.471 99zm0 62.46a8.133 8.133 0 1 0 0 .017z" class="cls-5" data-name="Path 3052" transform="translate(-507.184 -91.209)"/>
    <path id="Path_3053" d="M717.471 99a37.471 37.471 0 0 1 37.471 37.471c0 20.693-39.261 89.227-39.261 89.227S680 157.192 680 136.471A37.471 37.471 0 0 1 717.471 99zm0 62.46a8.133 8.133 0 1 0 0 .017z" class="cls-3" data-name="Path 3053" transform="translate(-507.184 -91.209)"/>
    <path id="Path_3054" d="M717.471 85.07a37.471 37.471 0 0 1 37.471 37.471c0 20.693-39.261 97.034-39.261 97.034S680 143.246 680 122.547a37.472 37.472 0 0 1 37.477-37.477zm0 62.46a19.63 19.63 0 1 0-19.63-19.631 19.631 19.631 0 0 0 19.63 19.631z" class="cls-5" data-name="Path 3054" transform="translate(-507.184 -85.07)"/>
</svg>
