<svg xmlns="http://www.w3.org/2000/svg" width="16.299" height="16.133" viewBox="0 0 16.299 16.133">
    <defs>
        <style>
            .cls-1{opacity:.5}
        </style>
    </defs>
    <g id="settings-gears" class="cls-1">
        <path id="Path_2876" d="M1.071 10.626a3.968 3.968 0 0 0 .355.843l-.426.54a.443.443 0 0 0 .033.587l.738.738a.442.442 0 0 0 .587.033l.537-.425a3.9 3.9 0 0 0 .876.371l.08.691a.442.442 0 0 0 .439.392h1.042A.442.442 0 0 0 5.771 14l.077-.666a3.945 3.945 0 0 0 .939-.379l.519.411a.443.443 0 0 0 .587-.033l.738-.738a.442.442 0 0 0 .033-.587l-.4-.512a3.853 3.853 0 0 0 .386-.923l.62-.073a.442.442 0 0 0 .392-.439v-1.04a.442.442 0 0 0-.392-.439l-.614-.072a3.878 3.878 0 0 0-.371-.91l.378-.477a.443.443 0 0 0-.033-.587L7.894 5.8a.442.442 0 0 0-.587-.033l-.463.367a3.891 3.891 0 0 0-.96-.4l-.07-.6a.442.442 0 0 0-.439-.392H4.33a.442.442 0 0 0-.439.392l-.07.6a3.875 3.875 0 0 0-.984.416l-.481-.381a.443.443 0 0 0-.587.033l-.738.738A.442.442 0 0 0 1 7.122l.4.509a3.8 3.8 0 0 0-.364.921l-.643.073a.442.442 0 0 0-.393.44v1.044a.442.442 0 0 0 .392.439zM4.853 7.8a1.726 1.726 0 1 1-1.726 1.728A1.728 1.728 0 0 1 4.853 7.8z" data-name="Path 2876" transform="translate(-.001 -4.737)"/>
        <path id="Path_2877" d="M484.736 288.956l-.551-.465a.436.436 0 0 0-.581.016l-.3.285a3.144 3.144 0 0 0-.811-.262l-.086-.42a.44.44 0 0 0-.465-.35l-.719.061a.438.438 0 0 0-.4.421l-.014.427a3.154 3.154 0 0 0-.775.407l-.364-.241a.437.437 0 0 0-.575.082l-.465.554a.436.436 0 0 0 .016.581l.318.339a3.254 3.254 0 0 0-.234.776l-.455.093a.44.44 0 0 0-.35.465l.061.719a.438.438 0 0 0 .421.4l.491.016a3.213 3.213 0 0 0 .348.664l-.274.414a.437.437 0 0 0 .082.575l.551.465a.436.436 0 0 0 .581-.016l.36-.337a3.155 3.155 0 0 0 .74.241l.1.493a.44.44 0 0 0 .465.35l.719-.061a.438.438 0 0 0 .4-.421l.016-.483a3.234 3.234 0 0 0 .74-.374l.4.262a.437.437 0 0 0 .575-.082l.465-.551a.436.436 0 0 0-.016-.581l-.32-.339a3.15 3.15 0 0 0 .252-.78l.437-.089a.44.44 0 0 0 .35-.465l-.061-.719a.438.438 0 0 0-.421-.4l-.439-.014a3.179 3.179 0 0 0-.365-.72l.24-.36a.435.435 0 0 0-.087-.576zm-2.708 4.154a1.413 1.413 0 1 1 1.289-1.526 1.413 1.413 0 0 1-1.289 1.527z" data-name="Path 2877" transform="translate(-469.565 -282.81)"/>
        <path id="Path_2878" d="M182.694 561.282a.437.437 0 0 0-.392.43l-.005.442a.436.436 0 0 0 .381.439l.325.042a2.523 2.523 0 0 0 .231.565l-.21.259a.436.436 0 0 0 .026.58l.309.317a.437.437 0 0 0 .581.04l.26-.2a2.556 2.556 0 0 0 .581.254l.035.336a.437.437 0 0 0 .43.392l.442.005a.436.436 0 0 0 .439-.381l.04-.318a2.629 2.629 0 0 0 .629-.245l.245.2a.436.436 0 0 0 .581-.026l.316-.309a.437.437 0 0 0 .04-.58l-.187-.243a2.537 2.537 0 0 0 .266-.612l.29-.03a.437.437 0 0 0 .392-.43l.005-.442a.436.436 0 0 0-.381-.439l-.283-.037a2.634 2.634 0 0 0-.24-.612l.177-.217a.436.436 0 0 0-.026-.581l-.309-.316a.437.437 0 0 0-.581-.04l-.212.163a2.57 2.57 0 0 0-.636-.276l-.028-.274a.437.437 0 0 0-.43-.392l-.442-.005a.436.436 0 0 0-.439.381l-.035.273a2.641 2.641 0 0 0-.659.269l-.219-.178a.436.436 0 0 0-.581.026l-.318.311a.437.437 0 0 0-.04.581l.187.241a2.559 2.559 0 0 0-.25.612zm2.855-.5a1.151 1.151 0 1 1-1.165 1.136 1.151 1.151 0 0 1 1.165-1.137z" data-name="Path 2878" transform="translate(-179.109 -549.047)"/>
    </g>
</svg>
