<svg xmlns="http://www.w3.org/2000/svg" width="14.95" height="12.131" viewBox="0 0 14.95 12.131">
    <defs>
        <style>
            .cls-1{opacity:.5}
        </style>
    </defs>
    <g id="paint-board-and-brush" class="cls-1">
        <path id="Path_2885" d="M14.648 41.107a.208.208 0 0 0-.362-.044 1.832 1.832 0 0 1-1.005.632 3.759 3.759 0 0 0-1.014.491 1.292 1.292 0 0 0-.625 1.334l-.012.016a6.82 6.82 0 0 0-.687-.847 6.419 6.419 0 0 0-4.371-1.962h-.218a6.341 6.341 0 0 0-4.8 2.243 6.312 6.312 0 0 0-1.48 5.065c.023.151.052.3.086.452a5.639 5.639 0 0 0 3.152 4.131 2.983 2.983 0 0 0 1.148.24 2.554 2.554 0 0 0 2.254-1.38 2.986 2.986 0 0 0 .359-1.026 2.477 2.477 0 0 0-.01-.608 2.287 2.287 0 0 1-.009-.591.793.793 0 0 1 .832-.711 1.283 1.283 0 0 1 .39.063c-.153.281-.292.549-.413.8a8.094 8.094 0 0 0-.528 1.3c-.057.206-.209.752.162 1.009a.555.555 0 0 0 .423.082c.14-.026.566-.105 1.778-1.485.325-.37.676-.8 1.042-1.273a2.822 2.822 0 0 0 1.865-2.01 2.962 2.962 0 0 0 .06-.72c.352-.544.661-1.052.971-1.6l.018-.033a1.712 1.712 0 0 0 1.067-.965 3.3 3.3 0 0 0-.073-2.603zM9.565 44.5a.885.885 0 1 1 .114-.668.881.881 0 0 1-.114.668zm1.149 1.6c.448-.66.921-1.315 1.371-1.9a2.427 2.427 0 0 0 .243.191 1.865 1.865 0 0 0 .456.234c-.38.649-.788 1.292-1.282 2.02a33.231 33.231 0 0 1-2.378 3.135A9.167 9.167 0 0 1 8.1 50.812a9.265 9.265 0 0 1 .584-1.341 33.333 33.333 0 0 1 2.03-3.371zm-7.859 0a.885.885 0 1 1 .75-.414.882.882 0 0 1-.75.414zm-.928 1.95a.885.885 0 1 1-.114.668.881.881 0 0 1 .114-.671zm2.835-5.258a.885.885 0 1 1-.114.668.881.881 0 0 1 .115-.671z" data-name="Path 2885" transform="translate(0 -40.723)"/>
    </g>
</svg>
