<svg xmlns="http://www.w3.org/2000/svg" width="12.269" height="12.195" viewBox="0 0 12.269 12.195">
    <defs>
        <style>
            .cls-1{opacity:.5}.cls-2{stroke:#000;stroke-width:.5px}
        </style>
    </defs>
    <g id="recycle" class="cls-1" transform="translate(.25 .25)">
        <path id="Path_2883" d="M5.847.67a5.217 5.217 0 0 1 2.679.759 5.8 5.8 0 0 1 1.4 1.176L8.541 2.56a.294.294 0 1 0-.019.588l1.913.063a.294.294 0 0 0 .384-.385L10.755.915a.294.294 0 0 0-.588.013v.006l.036 1.1A6.418 6.418 0 0 0 8.829.925 5.806 5.806 0 0 0 5.847.082a5.69 5.69 0 0 0-4.276 1.913A6.074 6.074 0 0 0 0 5.93a.294.294 0 1 0 .588 0 5.47 5.47 0 0 1 1.42-3.541A5.109 5.109 0 0 1 5.847.67zm0 0" class="cls-2" data-name="Path 2883" transform="translate(0 -.082)"/>
        <path id="Path_2884" d="M49.984 236.012a.294.294 0 0 0-.294.294 5.471 5.471 0 0 1-1.42 3.541 5.109 5.109 0 0 1-3.84 1.718 5.217 5.217 0 0 1-2.679-.759 5.8 5.8 0 0 1-1.4-1.176l1.383.046a.294.294 0 0 0 .019-.588l-1.913-.063a.294.294 0 0 0-.384.384l.063 1.912a.294.294 0 1 0 .588-.013v-.006l-.036-1.1a6.42 6.42 0 0 0 1.375 1.113 5.805 5.805 0 0 0 2.981.843 5.69 5.69 0 0 0 4.277-1.913 6.075 6.075 0 0 0 1.571-3.935.294.294 0 0 0-.291-.298zm0 0" class="cls-2" data-name="Path 2884" transform="translate(-38.509 -230.458)"/>
    </g>
</svg>
