<svg xmlns="http://www.w3.org/2000/svg" width="26" height="26" viewBox="0 0 26 26">
    <defs>
        <style>
            .cls-1{fill:#fff;stroke:#707070}.cls-2{opacity:.302;clip-path:url(#clip-path)}.cls-3{fill:none}
        </style>
        <clipPath id="clip-path">
            <path id="Rectangle_37" d="M0 0h26v26H0z" class="cls-1" data-name="Rectangle 37" transform="translate(4181.766 1526.765)"/>
        </clipPath>
    </defs>
    <g id="Mask_Group_12" class="cls-2" data-name="Mask Group 12" transform="translate(-4181.766 -1526.765)">
        <g id="mood-24px" transform="translate(4182 1527)">
            <path id="Path_2918" d="M0 0h25.531v25.531H0z" class="cls-3" data-name="Path 2918"/>
            <path id="Path_2919" d="M13.127 2.5a10.638 10.638 0 1 0 10.649 10.638A10.633 10.633 0 0 0 13.127 2.5zm.011 19.148a8.51 8.51 0 1 1 8.51-8.51 8.508 8.508 0 0 1-8.51 8.51zm3.723-9.574a1.6 1.6 0 1 0-1.6-1.6 1.594 1.594 0 0 0 1.6 1.6zm-7.446 0a1.6 1.6 0 1 0-1.6-1.6 1.594 1.594 0 0 0 1.6 1.6zm3.723 6.915a5.847 5.847 0 0 0 5.436-3.723H7.7a5.847 5.847 0 0 0 5.438 3.723z" data-name="Path 2919" transform="translate(-.372 -.372)"/>
        </g>
    </g>
</svg>
