<svg xmlns="http://www.w3.org/2000/svg" width="70" height="70" viewBox="0 0 70 70">
    <defs>
        <style>
            .cls-1{fill:#290000;stroke:#707070}.cls-2{clip-path:url(#clip-path)}.cls-3{fill:#ffca28}.cls-4{fill:#6d4c41}.cls-5{fill:#fafafa}
        </style>
        <clipPath id="clip-path">
            <path id="Rectangle_76" d="M0 0h70v70H0z" class="cls-1" data-name="Rectangle 76" transform="translate(4175.068 2328.068)"/>
        </clipPath>
    </defs>
    <g id="Mask_Group_38" class="cls-2" data-name="Mask Group 38" transform="translate(-4175.068 -2328.068)">
        <g id="smiling" transform="translate(4175 2328)">
            <circle id="Ellipse_22" cx="35" cy="35" r="35" class="cls-3" data-name="Ellipse 22" transform="translate(.068 .068)"/>
            <g id="Group_925" data-name="Group 925" transform="translate(13.107 17.578)">
                <path id="Path_2977" d="M85.015 42.036a2.193 2.193 0 0 1-2.192-2.192 4.383 4.383 0 0 0-8.767 0 2.192 2.192 0 0 1-4.383 0 8.767 8.767 0 1 1 17.534 0 2.19 2.19 0 0 1-2.192 2.192z" class="cls-4" data-name="Path 2977" transform="translate(-43.372 -31.077)"/>
                <path id="Path_2978" d="M38.515 42.036a2.193 2.193 0 0 1-2.192-2.192 4.383 4.383 0 1 0-8.767 0 2.192 2.192 0 0 1-4.383 0 8.767 8.767 0 1 1 17.534 0 2.19 2.19 0 0 1-2.192 2.192z" class="cls-4" data-name="Path 2978" transform="translate(-23.172 -31.077)"/>
            </g>
            <path id="Path_2979" d="M67.362 70.7a2.194 2.194 0 0 0-1.745-.872H19.24a2.2 2.2 0 0 0-2.113 2.788 26.291 26.291 0 0 0 50.594 0 2.172 2.172 0 0 0-.359-1.916z" class="cls-5" data-name="Path 2979" transform="translate(-7.405 -30.332)"/>
        </g>
    </g>
</svg>
