<svg xmlns="http://www.w3.org/2000/svg" width="17.863" height="15.969" viewBox="0 0 17.863 15.969">
    <defs>
        <style>
            .cls-1{fill:#fff}
        </style>
    </defs>
    <path id="Union_12" d="M3.018 15.91a.3.3 0 0 1-.116-.3l.527-2.6H2.6A2.694 2.694 0 0 1 0 11.053v-9.1A2.691 2.691 0 0 1 2.6 0h12.568a2.7 2.7 0 0 1 2.284 1.251l.1.063v.11a2.634 2.634 0 0 1 .31 1.236v7.691a2.647 2.647 0 0 1-.166.917v.077l-.046.038a2.7 2.7 0 0 1-2.484 1.629H8.957l-5.621 2.922a.273.273 0 0 1-.139.034.3.3 0 0 1-.179-.058z" class="cls-1" data-name="Union 12"/>
</svg>
